<?xml version="1.0" encoding="UTF-8"?>
<svg xmlns="http://www.w3.org/2000/svg" width="1000" height="1000" viewBox="0 0 2000 2000">
  <g id="l65Z6PrNyXPHoWyqfb2ioux" fill="transparent" style="transform: none;">
    <g style="transform: none;">
      <path id="pg3BNCSpi" d="M0 1000 l0 -1000 1000 0 1000 0 0 1000 0 1000 -1000 0 -1000 0 0 -1000z m1529 553 c0 -5 -102 -212 -227 -461 l-228 -453 -22 46 c-20 42 -25 45 -60 45 l-38 0 -54 -110 c-30 -61 -57 -110 -60 -110 -4 0 -470 924 -470 933 0 1 59 1 130 -1 l130 -4 0 41 c0 23 -5 51 -10 62 -11 19 -2 19 450 19 253 0 460 -3 459 -7z m290 -154 l103 -84 -47 -14 -47 -15 6 -111 c8 -127 -5 -191 -56 -288 -82 -154 -302 -287 -433 -263 -32 6 -33 7 -23 45 l10 38 82 5 c102 7 177 41 242 110 68 73 96 142 102 254 2 50 2 108 -2 128 -6 31 -11 36 -35 36 -16 0 -47 -7 -70 -15 -39 -13 -42 -13 -37 3 3 9 19 67 36 127 17 61 34 118 36 128 4 12 10 15 17 9 7 -5 59 -46 116 -93z m-1587 -151 c13 -19 11 -27 -19 -87 -66 -129 -67 -286 -3 -418 46 -94 146 -173 218 -173 27 0 31 4 42 48 7 26 16 50 19 54 7 8 171 -204 171 -220 0 -6 -243 -92 -263 -92 -3 0 -2 12 3 26 6 14 10 42 10 62 0 34 -5 39 -48 63 -225 125 -326 365 -249 588 24 68 83 171 98 171 4 0 13 -10 21 -22z"></path>
    </g>
  </g>
  <g id="l4ISrBZ99c0JhgybN4n19ck" fill="rgb(0,179,239)" style="transform: none;">
    <g style="transform: none;">
      <path id="p7Z6YFxGZ" d="M600 1479 c0 -9 -36 -10 -132 -5 -73 3 -138 3 -144 -1 -8 -6 71 -173 248 -526 226 -453 261 -517 274 -506 9 7 43 67 76 133 33 67 62 123 65 126 3 3 11 -4 19 -14 13 -18 14 -17 14 17 0 28 -46 129 -187 412 -164 327 -191 375 -210 375 -13 0 -23 -5 -23 -11z"></path>
      <path id="p1EBFuFvg5" d="M166 1284 c-148 -189 -149 -478 -2 -665 38 -48 165 -147 206 -161 9 -3 6 -24 -10 -76 -12 -40 -20 -75 -18 -77 5 -5 369 114 381 124 7 7 -230 331 -242 331 -4 0 -19 -36 -32 -80 l-24 -79 -33 16 c-93 46 -163 143 -188 264 -22 105 5 218 72 307 l26 33 -26 37 c-14 20 -35 48 -45 61 l-18 24 -47 -59z"></path>
    </g>
  </g>
  <g id="l3FOcDZejqb9IedW0GUPJgl" fill="rgb(0,78,127)" style="transform: none;">
    <g style="transform: none;">
      <path id="p2hKcJKZD" d="M596 1493 c6 -21 3 -22 -78 -26 l-83 -3 90 -2 90 -2 198 -395 c108 -217 201 -395 205 -394 4 0 92 172 195 382 185 377 210 440 175 452 -7 2 -189 6 -405 7 l-392 3 5 -22z"></path>
      <path id="pr5eCnF2i" d="M1320 715 c0 -22 4 -25 35 -25 31 0 35 3 35 25 0 22 -4 25 -35 25 -31 0 -35 -3 -35 -25z"></path>
    </g>
  </g>
  <g id="l4X0vkAF0oiG3FiqwZsEHPn" fill="rgb(47,91,127)" style="transform: none;">
    <g style="transform: none;">
      <path id="pt5c96ejB" d="M577 1538 l28 -53 375 -3 c206 -1 378 -6 383 -11 4 -4 -76 -177 -180 -384 l-187 -376 39 -81 39 -81 258 513 c141 282 257 516 257 521 1 4 -233 7 -520 7 l-520 0 28 -52z"></path>
    </g>
  </g>
  <g id="l3TOeBmblHmtVFhNvh8YWyt" fill="rgb(1,56,104)" style="transform: none;">
    <g style="transform: none;">
      <path id="pxcopblt3" d="M1616 1369 c-32 -110 -55 -203 -52 -206 2 -3 39 6 80 20 l75 25 7 -35 c11 -57 -4 -161 -30 -219 -51 -111 -162 -195 -277 -210 -30 -4 -57 -12 -61 -18 -5 -8 -8 -7 -8 2 0 6 -11 12 -24 12 -20 0 -25 -8 -41 -65 -9 -36 -15 -68 -12 -71 13 -13 131 -16 189 -4 142 27 286 138 352 270 47 95 60 163 53 286 l-6 100 70 23 c38 12 69 24 69 25 0 3 -272 224 -316 258 -8 6 -29 -54 -68 -193z"></path>
    </g>
  </g>
</svg>