<!--
 * Copyright 2023 Datastrato.
 * This software is licensed under the Apache License version 2.
-->
<?xml version="1.0" encoding="utf-8"?>
<!-- Generator: Adobe Illustrator 24.1.2, SVG Export Plug-In . SVG Version: 6.00 Build 0)  -->
<svg version="1.1" id="lay1er1" xmlns="http://www.w3.org/2000/svg" xmlns:xlink="http://www.w3.org/1999/xlink" x="0px" y="0px"
	 viewBox="0 0 400 400" style="enable-background:new 0 0 400 400;" xml:space="preserve">
<style type="text/css">
	.st0{fill:#FFFFFF;}
	.st1{fill:#231815;}
	.st2{fill:#0911FD;}
</style>
<path class="st2" d="M246.04,190.1l0.33-4.4c0.14-4.24-0.81-7.94-2.67-11.12c-1.95-3.33-4.88-6.07-8.62-8.25
	c-18.24-10.81-33.15-18.9-51.48-29.56c-3.5-2.04-7.13-3.59-10.84-4.64c-3.75-1.07-7.58-1.64-11.41-1.72
	c-7.78-0.14-15.63,1.87-22.58,5.58c-6.89,3.67-12.89,9.02-17.03,15.56c-2.03,3.21-3.63,6.67-4.75,10.34
	c-1.11,3.63-1.76,7.45-1.92,11.42l0.02,100.25l-7.39-4.27c-8.74-5.04-13.74-13.61-13.74-23.72l0.02-0.03l0-90.23h-0.02
	c0.01-5.03,1.25-9.71,3.59-13.76c2.34-4.06,5.78-7.48,10.15-10.01c11.22-6.48,22.42-12.94,33.63-19.41l-11.59-6.69
	c-3.71-2.14-7.95-2.14-11.66,0l-19.12,11.04c-7.13,4.11-12.73,9.71-16.55,16.32c-3.82,6.62-5.86,14.27-5.86,22.5l-0.02,0.03v90.23
	h0.02c0.01,16.27,8.3,30.72,22.41,38.87l15.36,8.87l9.73,5.57c1.82,1.04,3.89,1.07,5.73,0.06c1.84-1.01,2.93-2.78,3.01-4.88
	c0,0-0.14-80.19-0.02-120.02c0.09-2.42,0.48-4.74,1.14-6.92c0.66-2.2,1.61-4.26,2.8-6.14c2.48-3.92,6.2-7.16,10.45-9.41
	c4.32-2.29,9.18-3.55,13.87-3.46c2.34,0.04,4.67,0.39,6.97,1.05c2.27,0.65,4.51,1.61,6.66,2.86c18.32,10.66,33.37,18.52,51.59,29.36
	l0,0c0.76,0.44,1.36,1.02,1.75,1.71c0.37,0.65,0.56,1.42,0.54,2.27l0,0.01l-0.52,12.39l0,0c-0.01,0.32,0.07,0.63,0.21,0.89v0
	c0.14,0.27,0.36,0.49,0.63,0.66c0.27,0.17,0.57,0.26,0.88,0.27c0.3,0.01,0.61-0.06,0.89-0.22l14.48-7.75l0,0
	c0.28-0.15,0.5-0.36,0.67-0.62v0C245.94,190.71,246.03,190.42,246.04,190.1L246.04,190.1z M185.97,245.61l3.78,2.37
	c3.6,2.24,7.28,3.27,10.97,3.25c3.86-0.02,7.7-1.2,11.45-3.35c18.48-10.39,32.95-19.26,51.34-29.8c3.51-2.01,6.67-4.39,9.44-7.06
	c2.81-2.71,5.22-5.74,7.19-9.03c4.01-6.66,6.19-14.47,6.46-22.34c0.26-7.8-1.37-15.67-4.96-22.53c-1.76-3.37-3.97-6.48-6.58-9.29
	c-2.59-2.78-5.57-5.25-8.93-7.37l-86.83-50.1l7.39-4.27c8.74-5.04,18.66-5.1,27.41-0.04l0.02,0.03l78.14,45.12l0.01-0.02
	c4.35,2.52,7.78,5.94,10.12,9.99c2.34,4.06,3.59,8.75,3.59,13.79c0,12.95,0,25.89-0.01,38.83l11.6-6.69
	c3.71-2.14,5.83-5.82,5.83-10.1l0-22.08c0-8.23-2.04-15.88-5.86-22.5c-3.82-6.62-9.43-12.21-16.55-16.32l-0.02-0.03l-78.14-45.12
	l-0.01,0.02c-14.1-8.13-30.76-8.17-44.87-0.03l-15.36,8.87l-9.69,5.64c-1.81,1.06-2.87,2.83-2.91,4.93
	c-0.04,2.1,0.95,3.92,2.72,5.04c0,0,69.51,39.97,103.95,59.99c2.05,1.29,3.86,2.79,5.42,4.44c1.57,1.67,2.89,3.52,3.92,5.5
	c2.15,4.11,3.1,8.94,2.93,13.75c-0.18,4.88-1.52,9.72-3.94,13.75c-1.2,2-2.68,3.85-4.39,5.5c-1.7,1.64-3.65,3.1-5.81,4.34
	c-18.39,10.53-32.73,19.64-51.22,30l0,0c-0.77,0.44-1.56,0.66-2.35,0.66c-0.75,0-1.51-0.22-2.23-0.67l0,0l-11.04-6.8v0
	c-0.27-0.17-0.58-0.26-0.88-0.27v0c-0.3-0.01-0.6,0.06-0.89,0.22c-0.28,0.15-0.51,0.37-0.67,0.62c-0.16,0.26-0.25,0.56-0.26,0.88
	l-0.09,16.69l0,0c-0.01,0.31,0.06,0.62,0.21,0.89l0,0C185.49,245.22,185.7,245.45,185.97,245.61L185.97,245.61z M169,164.17
	l-4.74,2.51c-3.74,2-6.47,4.67-8.3,7.87c-1.91,3.35-2.82,7.27-2.83,11.59c-0.25,21.2,0.21,38.16,0.13,59.36
	c-0.01,4.05,0.46,7.97,1.4,11.71c0.95,3.78,2.36,7.39,4.22,10.74c3.76,6.81,9.44,12.6,16.12,16.76c6.63,4.13,14.25,6.65,21.99,6.97
	c3.8,0.16,7.59-0.19,11.33-1.06c3.7-0.85,7.33-2.2,10.85-4.05l86.8-50.15v8.53c0,10.09-4.92,18.71-13.67,23.76h-0.04l-78.14,45.12
	l0.01,0.01c-4.36,2.51-9.04,3.77-13.71,3.77c-4.69,0-9.37-1.26-13.74-3.78c-11.22-6.48-22.42-12.95-33.63-19.42v13.39
	c0,4.28,2.12,7.96,5.83,10.1l19.12,11.04c7.13,4.11,14.77,6.17,22.42,6.17c7.64,0,15.29-2.06,22.41-6.17h0.03l78.14-45.12
	l-0.01-0.02c14.09-8.14,22.46-22.55,22.46-38.84v-17.73l-0.04-11.21c-0.01-2.1-1.02-3.9-2.82-4.99c-1.8-1.09-3.87-1.15-5.72-0.17
	c0,0-69.38,40.22-103.93,60.02c-2.14,1.13-4.34,1.95-6.56,2.47c-2.24,0.52-4.49,0.74-6.72,0.65c-4.64-0.19-9.3-1.79-13.37-4.34
	c-4.14-2.6-7.66-6.18-9.93-10.29c-1.13-2.05-1.99-4.24-2.57-6.56c-0.57-2.3-0.86-4.71-0.86-7.2c0.07-21.2-0.64-38.16-0.37-59.36v0
	c0-0.88,0.21-1.69,0.6-2.37c0.38-0.65,0.95-1.2,1.69-1.6l0,0l11.75-6.35v0c0.28-0.15,0.51-0.37,0.67-0.63l0,0
	c0.16-0.26,0.25-0.56,0.26-0.88c0.01-0.32-0.06-0.63-0.2-0.89c-0.14-0.27-0.36-0.5-0.63-0.66l-13.95-8.66v0
	c-0.27-0.16-0.57-0.25-0.87-0.26h0C169.58,163.95,169.28,164.02,169,164.17L169,164.17z"/>
</svg>
