<svg fill="none" height="24" viewBox="0 0 24 24" width="24" xmlns="http://www.w3.org/2000/svg"><path d="m17.4142 11.4142-.5303-.5303zm1.3358-3.4142c0-.41421-.3358-.75-.75-.75s-.75.33579-.75.75zm-12 0c0-.41421-.33579-.75-.75-.75s-.75.33579-.75.75zm-.16421 3.4142-.53033.5303zm6.16421.5858c0-.4142-.3358-.75-.75-.75s-.75.3358-.75.75zm-1.5 4c0 .4142.3358.75.75.75s.75-.3358.75-.75zm-1.25-3.25h4v-1.5h-4zm4 0c.9216 0 1.6883.0016 2.2945-.0799.6278-.0844 1.1946-.2701 1.65-.7256l-1.0606-1.0606c-.1303.1303-.3278.2375-.7893.2996-.483.0649-1.1306.0665-2.0946.0665zm3.25-4.75c0 .96401-.0016 1.61157-.0665 2.0946-.0621.4615-.1693.659-.2996.7893l1.0606 1.0606c.4555-.4554.6412-1.0222.7256-1.65.0815-.60624.0799-1.37289.0799-2.2945zm-12 0c0 .92161-.00159 1.68826.07991 2.2945.08441.6278.27008 1.1946.72555 1.65l1.06066-1.0606c-.13032-.1303-.23754-.3278-.29958-.7893-.06495-.48303-.06654-1.13059-.06654-2.0946zm4.75 3.25c-.96401 0-1.61157-.0016-2.09461-.0665-.46146-.0621-.65896-.1693-.78927-.2996l-1.06066 1.0606c.45547.4555 1.02227.6412 1.65006.7256.60622.0815 1.37287.0799 2.29448.0799zm1.25.75v4h1.5v-4z" fill="#141b34"/><g stroke="#141b34" stroke-width="1.5"><circle cx="6" cy="6" r="2"/><circle cx="12" cy="18" r="2"/><circle cx="18" cy="6" r="2"/></g></svg>