<?xml version="1.0" encoding="utf-8"?>
<!--
 * Licensed to the Apache Software Foundation (ASF) under one
 * or more contributor license agreements.  See the NOTICE file
 * distributed with this work for additional information
 * regarding copyright ownership.  The ASF licenses this file
 * to you under the Apache License, Version 2.0 (the
 * "License"); you may not use this file except in compliance
 * with the License.  You may obtain a copy of the License at
 *
 *  http://www.apache.org/licenses/LICENSE-2.0
 *
 * Unless required by applicable law or agreed to in writing,
 * software distributed under the License is distributed on an
 * "AS IS" BASIS, WITHOUT WARRANTIES OR CONDITIONS OF ANY
 * KIND, either express or implied.  See the License for the
 * specific language governing permissions and limitations
 * under the License.
-->
<svg version="1.1" xmlns="http://www.w3.org/2000/svg" xmlns:xlink="http://www.w3.org/1999/xlink" x="0px" y="0px" viewBox="0 0 197.3 189.2">
<g>
  <path fill="#0911FD" d="M144.6,85.8L144.6,85.8h-27.4c-2.8-4.9-8.1-8.2-14.1-8.2c-9,0-16.4,7.3-16.4,16.4s7.3,16.4,16.4,16.4
    c6.1,0,11.3-3.3,14.1-8.2h26.6c-3.8,19.2-20.7,33.7-41,33.7C79.8,135.8,61,117,61,94s18.8-41.8,41.8-41.8c11,0,21.4,4.2,29.3,12
    c3.2,3.1,8.4,3.1,11.5-0.1s3.1-8.3-0.1-11.5c-10.9-10.7-25.4-16.6-40.7-16.6c-32,0-58.1,26.1-58.1,58.1s26.1,58.1,58.1,58.1
    c29.3,0,53.6-21.8,57.5-49.9h20.3c-3.8,39.7-37.3,70.9-78,70.9c-20.9,0-40.6-8.1-55.4-22.9c-3.2-3.2-8.3-3.2-11.5,0
    c-3.2,3.2-3.2,8.3,0,11.5c17.9,17.9,41.6,27.7,66.9,27.7c52.2,0,94.6-42.4,94.6-94.6l0-8.8L144.6,85.8L144.6,85.8z"/>
  <path fill="#0911FD" d="M25.4,81.4c6.3-36.9,38.5-65.1,77.2-65.1c19.8,0,38.8,7.4,53.3,20.9c3.3,3.1,8.4,2.9,11.5-0.4
    c3.1-3.3,2.9-8.4-0.4-11.5C149.5,9,126.6,0,102.6,0C55.3,0,15.9,35,9.1,80.4C3.7,83.1,0,88.6,0,95c0,9,7.3,16.4,16.4,16.4
    s16.4-7.3,16.4-16.4C32.7,89.3,29.8,84.3,25.4,81.4"/>
</g>
</svg>
