<svg xmlns="http://www.w3.org/2000/svg" width="1600" height="980" viewBox="0 0 1600 980">
  <defs>
    <marker id="arrow" markerWidth="10" markerHeight="8" refX="9" refY="4" orient="auto">
      <path d="M0,0 L10,4 L0,8 z" fill="#333"/>
    </marker>
    <style>
      .title { font: 700 20px Arial, sans-serif; fill: #1b1b1b; }
      .label { font: 600 15px Arial, sans-serif; fill: #1b1b1b; }
      .small { font: 500 14px Arial, sans-serif; fill: #1b1b1b; }
      .box { stroke: #666; stroke-width: 2; rx: 20; ry: 20; }
      .mini { fill: #f5f5f5; stroke: #666; stroke-width: 2; rx: 10; ry: 10; }
      .line { stroke: #333; stroke-width: 2; fill: none; marker-end: url(#arrow); }
    </style>
  </defs>

  <rect x="30" y="30" width="630" height="430" class="box" fill="#efe8c8"/>
  <text x="90" y="95" class="title">Gravitino server</text>
  <rect x="120" y="190" width="145" height="70" class="mini"/>
  <text x="138" y="232" class="label">PolicySystem</text>
  <rect x="405" y="190" width="145" height="70" class="mini"/>
  <text x="432" y="232" class="label">JobSystem</text>
  <rect x="120" y="300" width="145" height="70" class="mini"/>
  <text x="132" y="342" class="label">TableMetadata</text>
  <rect x="405" y="300" width="145" height="70" class="mini"/>
  <text x="432" y="342" class="label">StatsSystem</text>

  <rect x="790" y="40" width="360" height="300" class="box" fill="#e8c8c8"/>
  <text x="830" y="90" class="title">Recommender</text>
  <rect x="820" y="150" width="145" height="70" class="mini"/>
  <text x="830" y="192" class="label">StrategyProvider</text>
  <rect x="980" y="150" width="145" height="70" class="mini"/>
  <text x="1004" y="192" class="label">StatsProvider</text>
  <rect x="820" y="245" width="145" height="70" class="mini"/>
  <text x="845" y="287" class="label">JobSubmitter</text>
  <rect x="980" y="245" width="145" height="70" class="mini"/>
  <text x="1010" y="287" class="label">strategyHandler</text>

  <rect x="1360" y="30" width="170" height="900" class="box" fill="#e9e9e9"/>
  <text x="1430" y="95" text-anchor="middle" class="title">CLI</text>

  <rect x="45" y="560" width="250" height="350" class="box" fill="#d8cce8"/>
  <text x="90" y="625" class="title">Spark job</text>
  <rect x="95" y="700" width="150" height="78" class="mini"/>
  <text x="104" y="734" class="label">update table</text>
  <text x="104" y="754" class="label">stats and</text>
  <text x="104" y="774" class="label">metrics job</text>
  <rect x="95" y="800" width="150" height="78" class="mini"/>
  <text x="110" y="847" class="label">rewrite data job</text>

  <rect x="360" y="540" width="290" height="390" class="box" fill="#efe8c8"/>
  <text x="395" y="625" class="title">JDBC Metrics</text>
  <text x="420" y="655" class="title">repository</text>
  <rect x="420" y="700" width="170" height="76" class="mini"/>
  <text x="455" y="744" class="label">table metrics</text>
  <rect x="420" y="810" width="170" height="76" class="mini"/>
  <text x="470" y="854" class="label">job metrics</text>

  <rect x="760" y="560" width="390" height="220" class="box" fill="#e8c8c8"/>
  <text x="810" y="625" class="title">Updater</text>
  <rect x="810" y="680" width="150" height="78" class="mini"/>
  <text x="840" y="716" class="label">Statistics</text>
  <text x="858" y="736" class="label">Updater</text>
  <rect x="985" y="680" width="150" height="78" class="mini"/>
  <text x="1028" y="716" class="label">Metrics</text>
  <text x="1032" y="736" class="label">Updater</text>

  <rect x="760" y="800" width="390" height="160" class="box" fill="#e8c8c8"/>
  <text x="810" y="855" class="title">Monitor</text>
  <rect x="800" y="880" width="150" height="66" class="mini"/>
  <text x="836" y="920" class="label">Metrics</text>
  <text x="829" y="938" class="label">Provider</text>
  <rect x="975" y="880" width="150" height="66" class="mini"/>
  <text x="1007" y="918" class="label">Metrics</text>
  <text x="1005" y="936" class="label">Evaluator</text>

  <rect x="950" y="810" width="165" height="58" class="mini"/>
  <text x="974" y="844" class="label">TableJob</text>
  <text x="958" y="862" class="label">RelationProvider</text>

  <line x1="660" y1="120" x2="790" y2="120" class="line"/>
  <text x="708" y="108" class="small">get policy</text>

  <line x1="790" y1="185" x2="660" y2="185" class="line"/>
  <text x="684" y="170" class="small">submit rewrite</text>
  <text x="722" y="188" class="small">job</text>

  <line x1="660" y1="255" x2="790" y2="255" class="line"/>
  <text x="695" y="243" class="small">get table stats</text>

  <line x1="1360" y1="215" x2="1150" y2="215" class="line"/>
  <text x="1185" y="202" class="small">submit strategy job</text>

  <line x1="1360" y1="450" x2="660" y2="450" class="line"/>
  <text x="980" y="438" class="small">submit update stats job</text>

  <line x1="170" y1="460" x2="170" y2="560" class="line"/>
  <text x="102" y="510" class="small">run job</text>

  <line x1="760" y1="650" x2="660" y2="650" class="line"/>
  <text x="670" y="635" class="small">update table stats</text>

  <line x1="760" y1="720" x2="650" y2="720" class="line"/>
  <text x="668" y="708" class="small">update metrics</text>

  <line x1="1360" y1="640" x2="650" y2="740" class="line"/>
  <text x="1040" y="700" class="small">append metrics</text>

  <line x1="650" y1="780" x2="1360" y2="760" class="line"/>
  <text x="1020" y="748" class="small">list metrics</text>

  <line x1="650" y1="850" x2="760" y2="850" class="line"/>
  <text x="675" y="835" class="label">get metrics</text>

  <line x1="1360" y1="860" x2="1150" y2="860" class="line"/>
  <text x="1190" y="848" class="small">monitor metrics</text>

  <line x1="1360" y1="610" x2="1150" y2="610" class="line"/>
  <text x="1215" y="597" class="small">update stats</text>
</svg>
