<?xml version="1.0" encoding="UTF-8" standalone="no"?>
<!-- Created with Inkscape (http://www.inkscape.org/) -->

<svg
   version="1.1"
   id="svg1"
   width="710.2796"
   height="723.61829"
   viewBox="0 0 710.27961 723.61829"
   xmlns="http://www.w3.org/2000/svg"
   xmlns:svg="http://www.w3.org/2000/svg">
  <defs
     id="defs1" />
  <g
     id="layer2"
     transform="translate(76.696838,796.98047)">
    <ellipse
       style="display:inline;fill:#ffffff"
       id="path21"
       cx="278.44296"
       cy="-435.17133"
       rx="355.1398"
       ry="361.80911" />
  </g>
  <g
     id="g23"
     transform="translate(76.696838,796.98047)">
    <ellipse
       style="display:none;fill:#ffffff"
       id="ellipse22"
       cx="278.44296"
       cy="-435.17133"
       rx="355.1398"
       ry="361.80911" />
    <g
       id="g22"
       transform="translate(-29.025387,-737.09606)"
       style="display:inline">
      <path
         style="display:inline;fill:#000000"
         d="m 283.31274,576.02831 c -6.05,-0.69075 -14.825,-1.98771 -19.5,-2.88214 -4.675,-0.89443 -10.3,-2.01616 -12.5,-2.49273 -2.2,-0.47657 -6.25,-1.4539 -9,-2.17185 -2.75,-0.71795 -8.825,-2.56038 -13.5,-4.0943 -4.675,-1.53392 -10.1791,-3.39326 -12.23133,-4.13187 -2.05223,-0.73861 -4.03973,-1.65133 -4.41667,-2.02826 -0.37693,-0.37694 -1.25247,-0.68534 -1.94564,-0.68534 -0.69316,0 -4.78066,-1.61079 -9.08333,-3.57953 -4.30267,-1.96874 -11.74921,-5.57644 -16.54788,-8.0171 -4.79867,-2.44067 -13.12367,-7.20048 -18.5,-10.57736 -5.37633,-3.37689 -13.84633,-9.15054 -18.82221,-12.83034 -4.97589,-3.6798 -12.40089,-9.56163 -16.5,-13.07074 -4.09912,-3.5091 -9.19115,-7.96526 -11.31564,-9.90256 -2.12448,-1.9373 -5.15776,-5.77237 -6.74061,-8.52237 -2.34057,-4.06643 -2.87967,-6.18838 -2.88731,-11.36467 -0.007,-5.01205 0.5562,-7.40382 2.65191,-11.25433 1.4637,-2.68931 4.0512,-5.93979 5.75,-7.22327 1.69879,-1.28349 5.22093,-3.14066 7.82697,-4.12705 3.10843,-1.17654 6.25903,-1.62202 9.15945,-1.2951 2.43164,0.27408 6.37443,1.46898 8.76173,2.65532 2.38731,1.18635 7.25333,4.89036 10.81338,8.23113 3.56005,3.34077 9.86005,8.80698 14,12.14711 4.13995,3.34014 12.47718,9.31239 18.52718,13.27167 6.05,3.95928 14.15,8.82243 18,10.80701 3.85,1.98458 10.96414,5.4182 15.8092,7.63025 4.84506,2.21206 9.36756,4.02193 10.05,4.02193 0.68244,0 1.6683,0.38478 2.1908,0.85506 0.5225,0.47029 4.775,2.01966 9.45,3.44305 4.675,1.4234 11.425,3.31561 15,4.20493 3.575,0.88932 8.075,2.01002 10,2.49044 1.925,0.48042 8.675,1.65206 15,2.60365 8.43926,1.26967 17.75456,1.72619 35,1.71527 17.31523,-0.011 26.13182,-0.45705 33.5,-1.695 5.5,-0.92406 12.25,-2.18798 15,-2.80869 2.75,-0.62072 8.15,-1.99467 12,-3.05323 3.85,-1.05855 8.35,-2.29326 10,-2.74378 1.65,-0.45053 6.24217,-1.98331 10.20482,-3.40619 3.96265,-1.42289 10.26265,-3.98058 14,-5.68376 3.73735,-1.70318 8.37018,-3.82227 10.29518,-4.70909 1.925,-0.88682 5.75,-2.92915 8.5,-4.53851 2.75,-1.60937 7.7,-4.53185 11,-6.49442 3.3,-1.96256 9.15,-5.82384 13,-8.58062 3.85,-2.75678 10.825,-8.23613 15.5,-12.17634 4.675,-3.94022 12.34334,-11.15974 17.04075,-16.0434 4.69741,-4.88365 11.40225,-12.47937 14.89964,-16.87937 3.4974,-4.4 9.15509,-12.275 12.57265,-17.5 3.41756,-5.225 8.34162,-13.55 10.94234,-18.5 2.60073,-4.95 6.52172,-13.275 8.71333,-18.5 2.1916,-5.225 4.62933,-11.525 5.41718,-14 0.78785,-2.475 2.05961,-6.525 2.82614,-9 0.76653,-2.475 1.85839,-6.525 2.42635,-9 0.56796,-2.475 1.72152,-7.65 2.56346,-11.5 0.84194,-3.85 1.98,-10.13331 2.52902,-13.9629 0.75751,-5.28391 0.70535,-7.14901 -0.21632,-7.73469 -0.668,-0.42448 -14.35961,-0.77868 -30.4258,-0.7871 l -29.21126,-0.0153 -1.53874,5.1815 c -0.84631,2.84983 -1.53874,6.15421 -1.53874,7.34308 0,1.18887 -1.8014,7.7071 -4.0031,14.48497 -2.20171,6.77786 -6.50178,17.31097 -9.55573,23.40692 -3.05394,6.09594 -6.09005,12.0069 -6.7469,13.13547 -0.65685,1.12857 -4.26062,6.37426 -8.00838,11.65708 -3.74775,5.28283 -10.94775,13.81432 -16,18.95888 -5.05224,5.14456 -13.01089,12.30818 -17.68589,15.91916 -4.675,3.61098 -11.875,8.64442 -16,11.18543 -4.125,2.54102 -11.775,6.61392 -17,9.0509 -5.225,2.43698 -12.875,5.54982 -17,6.91742 -4.125,1.36759 -9.975,3.19147 -13,4.05307 -3.025,0.86159 -7.75,2.02714 -10.5,2.59011 -2.75,0.56297 -9.275,1.56083 -14.5,2.21748 -5.225,0.65664 -14.9,1.18532 -21.5,1.17483 -6.6,-0.0105 -15.6,-0.54539 -20,-1.18868 -4.4,-0.64328 -10.475,-1.65238 -13.5,-2.24243 -3.025,-0.59006 -7.75,-1.70908 -10.5,-2.48672 -2.75,-0.77763 -6.575,-1.87887 -8.5,-2.44719 -1.925,-0.56832 -5.3,-1.74197 -7.5,-2.60811 -2.2,-0.86615 -5.575,-2.23956 -7.5,-3.05205 -1.925,-0.81248 -7.03332,-3.25326 -11.35182,-5.42397 -4.31849,-2.1707 -11.51849,-6.31844 -16,-9.2172 -4.4815,-2.89877 -12.55991,-8.98745 -17.95203,-13.5304 -5.39211,-4.54295 -13.26711,-12.31193 -17.5,-17.26439 -4.23288,-4.95247 -10.32309,-12.88533 -13.5338,-17.62859 -3.21071,-4.74327 -7.58537,-12.01317 -9.72148,-16.15534 -2.1361,-4.14218 -4.8409,-9.78123 -6.01067,-12.53123 -1.16976,-2.75 -3.1938,-8.23413 -4.49785,-12.18695 -1.30406,-3.95283 -3.24925,-11.15283 -4.32265,-16 -1.07339,-4.84718 -2.43719,-11.78993 -3.03066,-15.42835 -0.59347,-3.63841 -1.07904,-13.71153 -1.07904,-22.3847 0,-8.67317 0.48955,-18.74629 1.08789,-22.3847 0.59833,-3.63842 1.76724,-9.7653 2.59757,-13.6153 0.83033,-3.85 3.32689,-12.38175 5.5479,-18.95945 2.22102,-6.5777 6.29464,-16.2527 9.05249,-21.5 2.75786,-5.2473 7.6643,-13.48688 10.9032,-18.31017 3.23891,-4.82329 8.59035,-11.90836 11.8921,-15.74459 3.30174,-3.83624 10.35365,-10.84835 15.67089,-15.58246 5.31724,-4.73412 14.35269,-11.70167 20.07877,-15.48344 5.72608,-3.78178 14.99606,-9.10963 20.59995,-11.83969 5.6039,-2.73005 14.38795,-6.3588 19.52012,-8.06388 5.13218,-1.70509 12.98025,-3.93092 17.44017,-4.94629 4.45992,-1.01538 12.60895,-2.40027 18.10895,-3.07755 5.5,-0.67728 15.63322,-1.20976 22.51826,-1.1833 6.88504,0.0265 17.46004,0.74279 23.5,1.59184 6.03996,0.84904 14.80674,2.4895 19.48174,3.64546 4.675,1.15596 9.91801,2.74339 11.65113,3.52763 1.73312,0.78424 3.84406,1.42589 4.69098,1.42589 0.84692,0 1.81797,0.45 2.15789,1 0.33992,0.55 1.39949,1 2.35461,1 0.95512,0 7.34107,2.83989 14.19099,6.31086 6.84992,3.47097 15.6044,8.4688 19.4544,11.10627 3.85,2.63748 10.9117,8.11093 15.69266,12.16323 4.93413,4.18212 9.87611,9.38722 11.42971,12.03824 1.73952,2.96827 2.8997,6.63169 3.18332,10.05179 0.29609,3.57043 -0.11429,6.84914 -1.21947,9.74302 -0.91615,2.39891 -3.22499,5.96718 -5.13075,7.92947 -1.90576,1.9623 -5.15036,4.37541 -7.21024,5.36247 -2.55989,1.22665 -5.96069,1.7746 -10.74523,1.7313 -4.38827,-0.0397 -8.11931,-0.66012 -10,-1.66282 -1.65,-0.87971 -5.925,-4.15074 -9.5,-7.26896 -3.575,-3.11821 -9.425,-7.72499 -13,-10.23727 -3.575,-2.51229 -10.82913,-6.75026 -16.12028,-9.4177 -5.29115,-2.66745 -10.26365,-4.8499 -11.05,-4.8499 -0.78635,0 -1.85722,-0.37393 -2.37972,-0.83096 -0.5225,-0.45702 -3.65,-1.56381 -6.95,-2.45953 -3.3,-0.89572 -8.475,-2.18752 -11.5,-2.87068 -3.29816,-0.74484 -12.90619,-1.24471 -24,-1.24864 -13.63467,-0.005 -20.47243,0.4324 -26,1.66246 -4.125,0.91795 -9.075,2.17373 -11,2.79061 -1.925,0.61689 -4.4,1.48807 -5.5,1.93597 -1.1,0.4479 -4.475,1.80402 -7.5,3.01361 -3.025,1.20958 -7.525,3.33988 -10,4.73398 -2.475,1.3941 -6.9646,4.14271 -9.97688,6.10801 -3.01229,1.9653 -6.38729,4.26668 -7.5,5.11417 -1.11272,0.8475 -6.32909,5.81818 -11.59194,11.04595 -5.26285,5.22778 -11.50071,12.14151 -13.86191,15.36384 -2.3612,3.22233 -6.42504,9.97233 -9.03075,15 -2.60571,5.02767 -5.71909,11.99519 -6.91861,15.48339 -1.19953,3.4882 -3.12056,10.2382 -4.26896,15 -1.6798,6.96524 -2.09821,11.98127 -2.14026,25.65782 -0.0319,10.36215 0.44285,19.14754 1.21576,22.5 0.69741,3.025 2.60682,9.6965 4.24313,14.82556 1.63631,5.12906 5.00913,13.35867 7.49515,18.28801 2.48602,4.92935 7.15659,12.51835 10.37903,16.86446 3.22244,4.3461 9.29793,11.30764 13.50109,15.47008 4.20316,4.16244 11.98755,10.45858 17.29863,13.99141 5.31109,3.53284 12.41897,7.79189 15.79531,9.46456 3.37633,1.67267 11.02633,4.58927 17,6.48134 5.97366,1.89206 14.23621,4.04187 18.36121,4.77735 4.125,0.73548 13.125,1.33723 20,1.33723 6.875,0 15.875,-0.62462 20,-1.38805 4.125,-0.76344 10.425,-2.17674 14,-3.14067 3.575,-0.96394 8.975,-2.73431 12,-3.93415 3.025,-1.19985 8.65,-3.77816 12.5,-5.72959 3.85,-1.95143 10.6,-6.16271 15,-9.35842 4.4,-3.1957 10.75048,-8.42908 14.11218,-11.62974 3.3617,-3.20066 8.18696,-8.40937 10.72281,-11.57491 2.53584,-3.16554 6.21068,-8.25681 8.1663,-11.31394 1.95562,-3.05712 4.70815,-7.89213 6.11674,-10.74447 1.40859,-2.85233 3.67386,-8.11106 5.03394,-11.68606 1.36008,-3.575 3.12363,-8.89924 3.91901,-11.83164 0.79537,-2.93241 1.19073,-5.74491 0.87856,-6.25 -0.32913,-0.53255 -17.03207,-0.91813 -39.75856,-0.9178 l -39.19098,5.5e-4 -5.86703,6.56078 c -3.22687,3.60843 -7.72687,7.73532 -10,9.17086 -2.27313,1.43554 -6.83297,3.68864 -10.13297,5.00687 -4.92009,1.96541 -7.88985,2.41219 -16.5,2.48234 -9.27199,0.0755 -11.31868,-0.24101 -17.5,-2.70664 -3.85,-1.5357 -9.13142,-4.33875 -11.73649,-6.229 -2.60507,-1.89025 -6.35051,-5.31546 -8.32321,-7.61157 -1.9727,-2.29611 -5.24128,-7.54975 -7.26352,-11.67475 -3.61478,-7.37352 -3.67678,-7.70236 -3.67678,-19.5 0,-11.8761 0.0395,-12.08076 3.82241,-19.82241 2.5554,-5.22953 5.7632,-9.7632 9.67759,-13.67759 3.90419,-3.90419 8.29507,-7.01383 13.17759,-9.33242 4.05051,-1.92348 10.52883,-4.00137 14.49828,-4.65025 5.89524,-0.96368 8.60246,-0.90396 15.1697,0.33468 4.39661,0.82924 10.61747,2.7701 13.82413,4.31303 3.91122,1.88194 8.52112,5.5244 14.00518,11.06605 l 8.17489,8.26073 118.82511,0.25409 118.82512,0.25409 0.33286,16.5 c 0.18308,9.075 -0.20005,23.025 -0.8514,31 -0.65135,7.975 -1.82507,18.325 -2.60827,23 -0.78321,4.675 -1.83573,10.3 -2.33894,12.5 -0.50321,2.2 -1.67213,7.15 -2.5976,11 -0.92547,3.85 -2.78021,10.375 -4.12164,14.5 -1.34144,4.125 -3.58567,10.65 -4.98719,14.5 -1.40151,3.85 -3.447,9.025 -4.54553,11.5 -1.09853,2.475 -4.02458,8.67888 -6.50234,13.78641 -2.47776,5.10752 -6.99707,13.43252 -10.04291,18.5 -3.04584,5.06747 -8.68883,13.66928 -12.53999,19.11513 -3.85115,5.44584 -9.7003,13.09584 -12.9981,17 -3.2978,3.90415 -10.09166,11.30004 -15.09747,16.4353 -5.00582,5.13527 -12.92648,12.57458 -17.60148,16.53182 -4.675,3.95723 -11.425,9.45286 -15,12.21251 -3.575,2.75964 -8.975,6.60823 -12,8.55241 -3.025,1.94419 -8.875,5.57703 -13,8.073 -4.125,2.49596 -12,6.79471 -17.5,9.55278 -5.5,2.75807 -12.25,6.02448 -15,7.2587 -2.75,1.23422 -7.925,3.35724 -11.5,4.71783 -3.575,1.36058 -9.875,3.59422 -14,4.96364 -4.125,1.36943 -9.075,2.84449 -11,3.27792 -1.925,0.43344 -6.2,1.53333 -9.5,2.44422 -3.3,0.91089 -9.825,2.34165 -14.5,3.17948 -4.675,0.83782 -14.125,2.16153 -21,2.94157 -7.43087,0.84312 -21.2189,1.37394 -34,1.30897 -11.825,-0.0601 -26.45,-0.67445 -32.5,-1.3652 z M 41.301588,344.20209 c -3.30613,-1.22953 -8.08525,-3.66254 -10.62028,-5.40668 -2.53502,-1.74415 -6.60116,-5.38678 -9.03585,-8.09475 -2.43469,-2.70796 -5.6055,-7.19563 -7.04625,-9.9726 -1.44074,-2.77696 -3.38869,-8.50626 -4.32877,-12.73177 -1.071368,-4.81558 -1.490097,-9.53315 -1.122014,-12.64104 0.32298,-2.72706 1.124234,-6.6132 1.780554,-8.63586 0.65633,-2.02266 1.9825,-5.49757 2.94704,-7.72202 0.96455,-2.22445 3.57767,-6.35192 5.80695,-9.17216 2.22927,-2.82025 6.93584,-7.18471 10.45904,-9.69881 l 6.40581,-4.5711 1.73935,-9.75674 c 0.95664,-5.36621 2.3169,-11.78174 3.02281,-14.25674 0.70591,-2.475 2.05682,-7.2 3.00204,-10.5 0.94522,-3.3 2.34113,-7.91812 3.10202,-10.26248 0.76089,-2.34437 2.7836,-7.96937 4.494914,-12.5 1.71131,-4.53064 5.57564,-13.35075 8.58741,-19.60026 3.01177,-6.2495 7.24004,-14.24493 9.39616,-17.76761 2.15612,-3.52268 3.92022,-6.57713 3.92022,-6.78766 0,-0.21052 2.99006,-4.8151 6.64459,-10.23238 3.65453,-5.41729 10.06703,-14.08627 14.25,-19.26442 4.18298,-5.17814 12.105408,-13.97912 17.605408,-19.55773 5.5,-5.578616 12.475,-12.396716 15.5,-15.151346 3.025,-2.75463 10.9,-9.02865 17.5,-13.94227 6.6,-4.91361 12.9,-9.49144 14,-10.17295 1.1,-0.6815 6.05,-3.66773 11,-6.63605 4.95,-2.96832 13.5,-7.64052 19,-10.38266 5.5,-2.74213 11.8,-5.74884 14,-6.68157 2.2,-0.93273 4.9,-2.05941 6,-2.50373 1.1,-0.44433 3.29851,-1.33204 4.88558,-1.97271 1.58707,-0.64066 6.76207,-2.43618 11.5,-3.99004 4.73793,-1.55386 10.63942,-3.38821 13.11442,-4.07633 2.475,-0.68812 5.85,-1.67964 7.5,-2.20338 1.65,-0.52373 5.025,-1.32287 7.5,-1.77586 2.475,-0.45299 9.9,-1.86081 16.5,-3.1285 11.11063,-2.13405 14.59401,-2.30487 47,-2.30474 29.30179,1.1e-4 36.46525,0.28613 44,1.75685 4.95,0.96619 12.22911,2.40199 16.1758,3.19065 3.94669,0.78867 9.79669,2.15091 13,3.02721 3.20331,0.87629 7.1742,1.9431 8.8242,2.37068 1.65,0.42758 6.375,1.93038 10.5,3.33956 4.125,1.40918 11.94308,4.41947 17.37351,6.68952 5.43043,2.27006 14.65543,6.57365 20.5,9.56354 5.84457,2.98988 13.10149,6.86442 16.12649,8.61009 3.025,1.74567 9.1,5.6723 13.5,8.72585 4.4,3.05355 11.533,8.22619 15.85112,11.49476 4.31812,3.26856 11.09685,9.13405 15.06386,13.03441 5.18588,5.09873 7.54607,8.248196 8.39888,11.207566 0.65238,2.26382 1.18614,5.67116 1.18614,7.57187 0,1.90071 -0.69336,5.49074 -1.5408,7.97784 -0.84744,2.4871 -3.36504,6.36448 -5.59467,8.6164 -2.29877,2.32175 -6.03825,4.77054 -8.63734,5.65613 -2.52091,0.85896 -6.1386,1.56175 -8.03931,1.56175 -1.90071,0 -5.1776,-0.51585 -7.28197,-1.14634 -2.10438,-0.63048 -6.68013,-3.44298 -10.16835,-6.25 -3.48822,-2.80701 -9.54191,-7.679 -13.45264,-10.82664 -3.91073,-3.14763 -11.53718,-8.59516 -16.94767,-12.1056 -5.41049,-3.51046 -13.88725,-8.447976 -18.83725,-10.972276 -4.95,-2.5243 -12.14922,-6.01028 -15.99827,-7.74663 -3.84905,-1.73635 -11.04905,-4.46372 -16,-6.06084 -4.95095,-1.59711 -11.02673,-3.53239 -13.50173,-4.30062 -2.475,-0.76823 -6.525,-1.87556 -9,-2.46074 -2.475,-0.58517 -7.875,-1.71928 -12,-2.52023 -4.125,-0.80095 -12,-1.99018 -17.5,-2.64274 -6.23435,-0.73968 -17.90786,-1.00365 -31,-0.70099 -11.55,0.267 -24.375,0.986 -28.5,1.59776 -4.125,0.61176 -9.75,1.61229 -12.5,2.22341 -2.75,0.61111 -10.175,2.46504 -16.5,4.11985 -6.325,1.6548 -13.975,3.89212 -17,4.97183 -3.025,1.0797 -6.4,2.35651 -7.5,2.83735 -1.1,0.48083 -4.25,1.85841 -7,3.06128 -2.75,1.20286 -7.92225,3.52254 -11.49389,5.15483 -3.57163,1.63229 -9.64663,4.8299 -13.5,7.10579 -3.85336,2.275886 -10.60611,6.578006 -15.00611,9.560236 -4.4,2.98223 -12.5,9.12381 -18,13.64796 -5.5,4.52415 -13.84769,12.21444 -18.55043,17.08954 -4.70274,4.87509 -11.30823,12.27676 -14.67887,16.44815 -3.37064,4.17138 -9.33739,12.49638 -13.25945,18.5 -3.92205,6.00361 -9.85787,16.54066 -13.1907,23.41566 -3.33284,6.875 -6.670348,13.85 -7.416708,15.5 -0.74636,1.65 -2.91419,7.80818 -4.81742,13.68485 -1.90322,5.87667 -4.1646,13.52667 -5.02529,17 -0.8607,3.47333 -1.94574,8.39796 -2.41121,10.94362 -0.8463,4.62847 -0.8463,4.62847 5.81065,11.19082 3.94057,3.88457 7.7857,8.86756 9.423148,12.21166 1.52141,3.10713 3.40259,7.74626 4.18041,10.30918 0.77782,2.56293 1.41422,8.03487 1.41422,12.15987 0,4.125 -0.61484,9.525 -1.36631,12 -0.75147,2.475 -2.32227,6.53349 -3.49066,9.01887 -1.16839,2.48538 -4.172098,6.85977 -6.674908,9.72085 -2.50282,2.86109 -7.2654,6.87767 -10.58352,8.92573 -3.31812,2.04806 -8.33992,4.53618 -11.15956,5.52915 -3.74987,1.32056 -7.95669,1.79141 -15.66501,1.7533 -8.357954,-0.0413 -11.782114,-0.51464 -16.549534,-2.28763 z"
         id="path22" />
    </g>
  </g>
</svg>
